<svg width="800" height="600" xmlns="http://www.w3.org/2000/svg" version="1.1"><g transform="translate(50,0)"><text x="-50" y="-7" style="font-size: 10px; font-family: Arial, Helvetica;">null</text><g class="y axis" transform="translate(0,0)" style="font-size: 10px; font-family: Arial, Helvetica;"><g class="tick" transform="translate(0,550)" style="opacity: 1;"><line x2="-6" y2="0" style="shape-rendering: crispEdges; fill: none; stroke: rgb(204, 204, 204);"></line><text dy=".32em" x="-9" y="0" style="text-anchor: end;">0.0</text></g><g class="tick" transform="translate(0,537.7777777777777)" style="opacity: 1;"><line x2="-6" y2="0" style="shape-rendering: crispEdges; fill: none; stroke: rgb(204, 204, 204);"></line><text dy=".32em" x="-9" y="0" style="text-anchor: end;">0.2</text></g><g class="tick" transform="translate(0,525.5555555555555)" style="opacity: 1;"><line x2="-6" y2="0" style="shape-rendering: crispEdges; fill: none; stroke: rgb(204, 204, 204);"></line><text dy=".32em" x="-9" y="0" style="text-anchor: end;">0.4</text></g><g class="tick" transform="translate(0,513.3333333333334)" style="opacity: 1;"><line x2="-6" y2="0" style="shape-rendering: crispEdges; fill: none; stroke: rgb(204, 204, 204);"></line><text dy=".32em" x="-9" y="0" style="text-anchor: end;">0.6</text></g><g class="tick" transform="translate(0,501.1111111111111)" style="opacity: 1;"><line x2="-6" y2="0" style="shape-rendering: crispEdges; fill: none; stroke: rgb(204, 204, 204);"></line><text dy=".32em" x="-9" y="0" style="text-anchor: end;">0.8</text></g><g class="tick" transform="translate(0,488.88888888888886)" style="opacity: 1;"><line x2="-6" y2="0" style="shape-rendering: crispEdges; fill: none; stroke: rgb(204, 204, 204);"></line><text dy=".32em" x="-9" y="0" style="text-anchor: end;">1.0</text></g><g class="tick" transform="translate(0,476.6666666666667)" style="opacity: 1;"><line x2="-6" y2="0" style="shape-rendering: crispEdges; fill: none; stroke: rgb(204, 204, 204);"></line><text dy=".32em" x="-9" y="0" style="text-anchor: end;">1.2</text></g><g class="tick" transform="translate(0,464.44444444444446)" style="opacity: 1;"><line x2="-6" y2="0" style="shape-rendering: crispEdges; fill: none; stroke: rgb(204, 204, 204);"></line><text dy=".32em" x="-9" y="0" style="text-anchor: end;">1.4</text></g><g class="tick" transform="translate(0,452.22222222222223)" style="opacity: 1;"><line x2="-6" y2="0" style="shape-rendering: crispEdges; fill: none; stroke: rgb(204, 204, 204);"></line><text dy=".32em" x="-9" y="0" style="text-anchor: end;">1.6</text></g><g class="tick" transform="translate(0,440)" style="opacity: 1;"><line x2="-6" y2="0" style="shape-rendering: crispEdges; fill: none; stroke: rgb(204, 204, 204);"></line><text dy=".32em" x="-9" y="0" style="text-anchor: end;">1.8</text></g><g class="tick" transform="translate(0,427.77777777777777)" style="opacity: 1;"><line x2="-6" y2="0" style="shape-rendering: crispEdges; fill: none; stroke: rgb(204, 204, 204);"></line><text dy=".32em" x="-9" y="0" style="text-anchor: end;">2.0</text></g><g class="tick" transform="translate(0,415.55555555555554)" style="opacity: 1;"><line x2="-6" y2="0" style="shape-rendering: crispEdges; fill: none; stroke: rgb(204, 204, 204);"></line><text dy=".32em" x="-9" y="0" style="text-anchor: end;">2.2</text></g><g class="tick" transform="translate(0,403.33333333333337)" style="opacity: 1;"><line x2="-6" y2="0" style="shape-rendering: crispEdges; fill: none; stroke: rgb(204, 204, 204);"></line><text dy=".32em" x="-9" y="0" style="text-anchor: end;">2.4</text></g><g class="tick" transform="translate(0,391.1111111111111)" style="opacity: 1;"><line x2="-6" y2="0" style="shape-rendering: crispEdges; fill: none; stroke: rgb(204, 204, 204);"></line><text dy=".32em" x="-9" y="0" style="text-anchor: end;">2.6</text></g><g class="tick" transform="translate(0,378.8888888888889)" style="opacity: 1;"><line x2="-6" y2="0" style="shape-rendering: crispEdges; fill: none; stroke: rgb(204, 204, 204);"></line><text dy=".32em" x="-9" y="0" style="text-anchor: end;">2.8</text></g><g class="tick" transform="translate(0,366.6666666666667)" style="opacity: 1;"><line x2="-6" y2="0" style="shape-rendering: crispEdges; fill: none; stroke: rgb(204, 204, 204);"></line><text dy=".32em" x="-9" y="0" style="text-anchor: end;">3.0</text></g><g class="tick" transform="translate(0,354.4444444444444)" style="opacity: 1;"><line x2="-6" y2="0" style="shape-rendering: crispEdges; fill: none; stroke: rgb(204, 204, 204);"></line><text dy=".32em" x="-9" y="0" style="text-anchor: end;">3.2</text></g><g class="tick" transform="translate(0,342.22222222222223)" style="opacity: 1;"><line x2="-6" y2="0" style="shape-rendering: crispEdges; fill: none; stroke: rgb(204, 204, 204);"></line><text dy=".32em" x="-9" y="0" style="text-anchor: end;">3.4</text></g><g class="tick" transform="translate(0,330)" style="opacity: 1;"><line x2="-6" y2="0" style="shape-rendering: crispEdges; fill: none; stroke: rgb(204, 204, 204);"></line><text dy=".32em" x="-9" y="0" style="text-anchor: end;">3.6</text></g><g class="tick" transform="translate(0,317.77777777777777)" style="opacity: 1;"><line x2="-6" y2="0" style="shape-rendering: crispEdges; fill: none; stroke: rgb(204, 204, 204);"></line><text dy=".32em" x="-9" y="0" style="text-anchor: end;">3.8</text></g><g class="tick" transform="translate(0,305.55555555555554)" style="opacity: 1;"><line x2="-6" y2="0" style="shape-rendering: crispEdges; fill: none; stroke: rgb(204, 204, 204);"></line><text dy=".32em" x="-9" y="0" style="text-anchor: end;">4.0</text></g><g class="tick" transform="translate(0,293.3333333333333)" style="opacity: 1;"><line x2="-6" y2="0" style="shape-rendering: crispEdges; fill: none; stroke: rgb(204, 204, 204);"></line><text dy=".32em" x="-9" y="0" style="text-anchor: end;">4.2</text></g><g class="tick" transform="translate(0,281.1111111111111)" style="opacity: 1;"><line x2="-6" y2="0" style="shape-rendering: crispEdges; fill: none; stroke: rgb(204, 204, 204);"></line><text dy=".32em" x="-9" y="0" style="text-anchor: end;">4.4</text></g><g class="tick" transform="translate(0,268.8888888888889)" style="opacity: 1;"><line x2="-6" y2="0" style="shape-rendering: crispEdges; fill: none; stroke: rgb(204, 204, 204);"></line><text dy=".32em" x="-9" y="0" style="text-anchor: end;">4.6</text></g><g class="tick" transform="translate(0,256.6666666666667)" style="opacity: 1;"><line x2="-6" y2="0" style="shape-rendering: crispEdges; fill: none; stroke: rgb(204, 204, 204);"></line><text dy=".32em" x="-9" y="0" style="text-anchor: end;">4.8</text></g><g class="tick" transform="translate(0,244.44444444444443)" style="opacity: 1;"><line x2="-6" y2="0" style="shape-rendering: crispEdges; fill: none; stroke: rgb(204, 204, 204);"></line><text dy=".32em" x="-9" y="0" style="text-anchor: end;">5.0</text></g><g class="tick" transform="translate(0,232.2222222222222)" style="opacity: 1;"><line x2="-6" y2="0" style="shape-rendering: crispEdges; fill: none; stroke: rgb(204, 204, 204);"></line><text dy=".32em" x="-9" y="0" style="text-anchor: end;">5.2</text></g><g class="tick" transform="translate(0,219.99999999999994)" style="opacity: 1;"><line x2="-6" y2="0" style="shape-rendering: crispEdges; fill: none; stroke: rgb(204, 204, 204);"></line><text dy=".32em" x="-9" y="0" style="text-anchor: end;">5.4</text></g><g class="tick" transform="translate(0,207.77777777777777)" style="opacity: 1;"><line x2="-6" y2="0" style="shape-rendering: crispEdges; fill: none; stroke: rgb(204, 204, 204);"></line><text dy=".32em" x="-9" y="0" style="text-anchor: end;">5.6</text></g><g class="tick" transform="translate(0,195.5555555555556)" style="opacity: 1;"><line x2="-6" y2="0" style="shape-rendering: crispEdges; fill: none; stroke: rgb(204, 204, 204);"></line><text dy=".32em" x="-9" y="0" style="text-anchor: end;">5.8</text></g><g class="tick" transform="translate(0,183.33333333333334)" style="opacity: 1;"><line x2="-6" y2="0" style="shape-rendering: crispEdges; fill: none; stroke: rgb(204, 204, 204);"></line><text dy=".32em" x="-9" y="0" style="text-anchor: end;">6.0</text></g><g class="tick" transform="translate(0,171.11111111111111)" style="opacity: 1;"><line x2="-6" y2="0" style="shape-rendering: crispEdges; fill: none; stroke: rgb(204, 204, 204);"></line><text dy=".32em" x="-9" y="0" style="text-anchor: end;">6.2</text></g><g class="tick" transform="translate(0,158.88888888888889)" style="opacity: 1;"><line x2="-6" y2="0" style="shape-rendering: crispEdges; fill: none; stroke: rgb(204, 204, 204);"></line><text dy=".32em" x="-9" y="0" style="text-anchor: end;">6.4</text></g><g class="tick" transform="translate(0,146.66666666666669)" style="opacity: 1;"><line x2="-6" y2="0" style="shape-rendering: crispEdges; fill: none; stroke: rgb(204, 204, 204);"></line><text dy=".32em" x="-9" y="0" style="text-anchor: end;">6.6</text></g><g class="tick" transform="translate(0,134.44444444444446)" style="opacity: 1;"><line x2="-6" y2="0" style="shape-rendering: crispEdges; fill: none; stroke: rgb(204, 204, 204);"></line><text dy=".32em" x="-9" y="0" style="text-anchor: end;">6.8</text></g><g class="tick" transform="translate(0,122.22222222222221)" style="opacity: 1;"><line x2="-6" y2="0" style="shape-rendering: crispEdges; fill: none; stroke: rgb(204, 204, 204);"></line><text dy=".32em" x="-9" y="0" style="text-anchor: end;">7.0</text></g><g class="tick" transform="translate(0,109.99999999999997)" style="opacity: 1;"><line x2="-6" y2="0" style="shape-rendering: crispEdges; fill: none; stroke: rgb(204, 204, 204);"></line><text dy=".32em" x="-9" y="0" style="text-anchor: end;">7.2</text></g><g class="tick" transform="translate(0,97.77777777777773)" style="opacity: 1;"><line x2="-6" y2="0" style="shape-rendering: crispEdges; fill: none; stroke: rgb(204, 204, 204);"></line><text dy=".32em" x="-9" y="0" style="text-anchor: end;">7.4</text></g><g class="tick" transform="translate(0,85.55555555555556)" style="opacity: 1;"><line x2="-6" y2="0" style="shape-rendering: crispEdges; fill: none; stroke: rgb(204, 204, 204);"></line><text dy=".32em" x="-9" y="0" style="text-anchor: end;">7.6</text></g><g class="tick" transform="translate(0,73.33333333333331)" style="opacity: 1;"><line x2="-6" y2="0" style="shape-rendering: crispEdges; fill: none; stroke: rgb(204, 204, 204);"></line><text dy=".32em" x="-9" y="0" style="text-anchor: end;">7.8</text></g><g class="tick" transform="translate(0,61.111111111111136)" style="opacity: 1;"><line x2="-6" y2="0" style="shape-rendering: crispEdges; fill: none; stroke: rgb(204, 204, 204);"></line><text dy=".32em" x="-9" y="0" style="text-anchor: end;">8.0</text></g><g class="tick" transform="translate(0,48.88888888888896)" style="opacity: 1;"><line x2="-6" y2="0" style="shape-rendering: crispEdges; fill: none; stroke: rgb(204, 204, 204);"></line><text dy=".32em" x="-9" y="0" style="text-anchor: end;">8.2</text></g><g class="tick" transform="translate(0,36.66666666666666)" style="opacity: 1;"><line x2="-6" y2="0" style="shape-rendering: crispEdges; fill: none; stroke: rgb(204, 204, 204);"></line><text dy=".32em" x="-9" y="0" style="text-anchor: end;">8.4</text></g><g class="tick" transform="translate(0,24.44444444444448)" style="opacity: 1;"><line x2="-6" y2="0" style="shape-rendering: crispEdges; fill: none; stroke: rgb(204, 204, 204);"></line><text dy=".32em" x="-9" y="0" style="text-anchor: end;">8.6</text></g><g class="tick" transform="translate(0,12.222222222222179)" style="opacity: 1;"><line x2="-6" y2="0" style="shape-rendering: crispEdges; fill: none; stroke: rgb(204, 204, 204);"></line><text dy=".32em" x="-9" y="0" style="text-anchor: end;">8.8</text></g><g class="tick" transform="translate(0,0)" style="opacity: 1;"><line x2="-6" y2="0" style="shape-rendering: crispEdges; fill: none; stroke: rgb(204, 204, 204);"></line><text dy=".32em" x="-9" y="0" style="text-anchor: end;">9.0</text></g><path class="domain" d="M-6,0H0V550H-6" style="shape-rendering: crispEdges; fill: none; stroke: rgb(204, 204, 204);"></path></g><rect transform="translate(0,0)" class="bar" x="2" width="20" y="61.111111111111136" height="488.88888888888886" style="fill: rgb(255, 65, 65);"></rect><rect transform="translate(0,0)" class="bar" x="31" width="20" y="67.22222222222223" height="482.77777777777777" style="fill: rgb(112, 52, 52);"></rect><rect transform="translate(0,0)" class="bar" x="60" width="20" y="55.00000000000005" height="494.99999999999994" style="fill: rgb(106, 245, 106);"></rect><rect transform="translate(0,0)" class="bar" x="89" width="20" y="73.33333333333331" height="476.6666666666667" style="fill: rgb(255, 239, 96);"></rect><rect transform="translate(0,0)" class="bar" x="118" width="20" y="85.55555555555556" height="464.44444444444446" style="fill: rgb(255, 65, 65);"></rect><rect transform="translate(0,0)" class="bar" x="147" width="20" y="61.111111111111136" height="488.88888888888886" style="fill: rgb(255, 65, 65);"></rect><rect transform="translate(0,0)" class="bar" x="176" width="20" y="103.88888888888889" height="446.1111111111111" style="fill: rgb(106, 245, 106);"></rect><rect transform="translate(0,0)" class="bar" x="205" width="20" y="61.111111111111136" height="488.88888888888886" style="fill: rgb(106, 245, 106);"></rect><rect transform="translate(0,0)" class="bar" x="234" width="20" y="146.66666666666669" height="403.3333333333333" style="fill: rgb(106, 245, 106);"></rect><rect transform="translate(0,0)" class="bar" x="263" width="20" y="103.88888888888889" height="446.1111111111111" style="fill: rgb(106, 245, 106);"></rect><rect transform="translate(0,0)" class="bar" x="292" width="20" y="140.55555555555554" height="409.44444444444446" style="fill: rgb(255, 65, 65);"></rect><rect transform="translate(0,0)" class="bar" x="321" width="20" y="18.33333333333339" height="531.6666666666666" style="fill: rgb(106, 245, 106);"></rect><rect transform="translate(0,0)" class="bar" x="350" width="20" y="152.77777777777777" height="397.22222222222223" style="fill: rgb(106, 245, 106);"></rect><rect transform="translate(0,0)" class="bar" x="379" width="20" y="85.55555555555556" height="464.44444444444446" style="fill: rgb(112, 52, 52);"></rect><rect transform="translate(0,0)" class="bar" x="408" width="20" y="128.33333333333331" height="421.6666666666667" style="fill: rgb(106, 245, 106);"></rect><rect transform="translate(0,0)" class="bar" x="437" width="20" y="0" height="550" style="fill: rgb(255, 65, 65);"></rect><rect transform="translate(0,0)" class="bar" x="466" width="20" y="109.99999999999997" height="440" style="fill: rgb(65, 65, 145);"></rect><rect transform="translate(0,0)" class="bar" x="495" width="20" y="36.66666666666666" height="513.3333333333334" style="fill: rgb(106, 245, 106);"></rect><rect transform="translate(0,0)" class="bar" x="524" width="20" y="275" height="275" style="fill: rgb(112, 52, 52);"></rect><rect transform="translate(0,0)" class="bar" x="553" width="20" y="140.55555555555554" height="409.44444444444446" style="fill: rgb(112, 52, 52);"></rect><rect transform="translate(0,0)" class="bar" x="582" width="20" y="152.77777777777777" height="397.22222222222223" style="fill: rgb(255, 65, 65);"></rect><rect transform="translate(0,0)" class="bar" x="611" width="20" y="85.55555555555556" height="464.44444444444446" style="fill: rgb(65, 65, 145);"></rect><rect transform="translate(0,0)" class="bar" x="640" width="20" y="42.77777777777775" height="507.22222222222223" style="fill: rgb(106, 245, 106);"></rect><rect transform="translate(0,0)" class="bar" x="669" width="20" y="134.44444444444446" height="415.55555555555554" style="fill: rgb(255, 65, 65);"></rect><rect transform="translate(0,0)" class="bar" x="698" width="20" y="165.00000000000003" height="385" style="fill: rgb(112, 52, 52);"></rect><rect transform="translate(0,0)" class="bar" x="727" width="20" y="244.44444444444443" height="305.55555555555554" style="fill: rgb(255, 96, 255);"></rect></g><g class="x axis" transform="translate(50,550)" style="font-size: 10px; font-family: Arial, Helvetica;"><g class="tick" transform="translate(12,0)" style="opacity: 1;"><line y2="6" x2="0" style="shape-rendering: crispEdges; fill: none; stroke: rgb(204, 204, 204);"></line><text dy=".71em" y="9" x="0" style="text-anchor: middle;">Avatar</text></g><g class="tick" transform="translate(41,0)" style="opacity: 1;"><line y2="6" x2="0" style="shape-rendering: crispEdges; fill: none; stroke: rgb(204, 204, 204);"></line><text dy=".71em" y="9" x="0" style="text-anchor: middle;">ET: The Extra-Terrestrial</text></g><g class="tick" transform="translate(70,0)" style="opacity: 1;"><line y2="6" x2="0" style="shape-rendering: crispEdges; fill: none; stroke: rgb(204, 204, 204);"></line><text dy=".71em" y="9" x="0" style="text-anchor: middle;">Finding Nemo</text></g><g class="tick" transform="translate(99,0)" style="opacity: 1;"><line y2="6" x2="0" style="shape-rendering: crispEdges; fill: none; stroke: rgb(204, 204, 204);"></line><text dy=".71em" y="9" x="0" style="text-anchor: middle;">Ghostbusters</text></g><g class="tick" transform="translate(128,0)" style="opacity: 1;"><line y2="6" x2="0" style="shape-rendering: crispEdges; fill: none; stroke: rgb(204, 204, 204);"></line><text dy=".71em" y="9" x="0" style="text-anchor: middle;">Iron Man 3</text></g><g class="tick" transform="translate(157,0)" style="opacity: 1;"><line y2="6" x2="0" style="shape-rendering: crispEdges; fill: none; stroke: rgb(204, 204, 204);"></line><text dy=".71em" y="9" x="0" style="text-anchor: middle;">Jurassic Park</text></g><g class="tick" transform="translate(186,0)" style="opacity: 1;"><line y2="6" x2="0" style="shape-rendering: crispEdges; fill: none; stroke: rgb(204, 204, 204);"></line><text dy=".71em" y="9" x="0" style="text-anchor: middle;">King Kong</text></g><g class="tick" transform="translate(215,0)" style="opacity: 1;"><line y2="6" x2="0" style="shape-rendering: crispEdges; fill: none; stroke: rgb(204, 204, 204);"></line><text dy=".71em" y="9" x="0" style="text-anchor: middle;">Monsters, Inc.</text></g><g class="tick" transform="translate(244,0)" style="opacity: 1;"><line y2="6" x2="0" style="shape-rendering: crispEdges; fill: none; stroke: rgb(204, 204, 204);"></line><text dy=".71em" y="9" x="0" style="text-anchor: middle;">Oz the Great and Powerful</text></g><g class="tick" transform="translate(273,0)" style="opacity: 1;"><line y2="6" x2="0" style="shape-rendering: crispEdges; fill: none; stroke: rgb(204, 204, 204);"></line><text dy=".71em" y="9" x="0" style="text-anchor: middle;">Pirates of the Caribbean: Dead Man's Chest</text></g><g class="tick" transform="translate(302,0)" style="opacity: 1;"><line y2="6" x2="0" style="shape-rendering: crispEdges; fill: none; stroke: rgb(204, 204, 204);"></line><text dy=".71em" y="9" x="0" style="text-anchor: middle;">Quantum of Solace</text></g><g class="tick" transform="translate(331,0)" style="opacity: 1;"><line y2="6" x2="0" style="shape-rendering: crispEdges; fill: none; stroke: rgb(204, 204, 204);"></line><text dy=".71em" y="9" x="0" style="text-anchor: middle;">Raiders of the Lost Ark</text></g><g class="tick" transform="translate(360,0)" style="opacity: 1;"><line y2="6" x2="0" style="shape-rendering: crispEdges; fill: none; stroke: rgb(204, 204, 204);"></line><text dy=".71em" y="9" x="0" style="text-anchor: middle;">Star Wars Ep. I: The Phantom Menace</text></g><g class="tick" transform="translate(389,0)" style="opacity: 1;"><line y2="6" x2="0" style="shape-rendering: crispEdges; fill: none; stroke: rgb(204, 204, 204);"></line><text dy=".71em" y="9" x="0" style="text-anchor: middle;">The Blind Side</text></g><g class="tick" transform="translate(418,0)" style="opacity: 1;"><line y2="6" x2="0" style="shape-rendering: crispEdges; fill: none; stroke: rgb(204, 204, 204);"></line><text dy=".71em" y="9" x="0" style="text-anchor: middle;">The Chronicles of Narnia: The Lion, the Witch and the Wardrobe</text></g><g class="tick" transform="translate(447,0)" style="opacity: 1;"><line y2="6" x2="0" style="shape-rendering: crispEdges; fill: none; stroke: rgb(204, 204, 204);"></line><text dy=".71em" y="9" x="0" style="text-anchor: middle;">The Dark Knight</text></g><g class="tick" transform="translate(476,0)" style="opacity: 1;"><line y2="6" x2="0" style="shape-rendering: crispEdges; fill: none; stroke: rgb(204, 204, 204);"></line><text dy=".71em" y="9" x="0" style="text-anchor: middle;">The Hunger Games</text></g><g class="tick" transform="translate(505,0)" style="opacity: 1;"><line y2="6" x2="0" style="shape-rendering: crispEdges; fill: none; stroke: rgb(204, 204, 204);"></line><text dy=".71em" y="9" x="0" style="text-anchor: middle;">The Lion King</text></g><g class="tick" transform="translate(534,0)" style="opacity: 1;"><line y2="6" x2="0" style="shape-rendering: crispEdges; fill: none; stroke: rgb(204, 204, 204);"></line><text dy=".71em" y="9" x="0" style="text-anchor: middle;">The Twilight Saga: New Moon</text></g><g class="tick" transform="translate(563,0)" style="opacity: 1;"><line y2="6" x2="0" style="shape-rendering: crispEdges; fill: none; stroke: rgb(204, 204, 204);"></line><text dy=".71em" y="9" x="0" style="text-anchor: middle;">The Vow</text></g><g class="tick" transform="translate(592,0)" style="opacity: 1;"><line y2="6" x2="0" style="shape-rendering: crispEdges; fill: none; stroke: rgb(204, 204, 204);"></line><text dy=".71em" y="9" x="0" style="text-anchor: middle;">The War of the Worlds</text></g><g class="tick" transform="translate(621,0)" style="opacity: 1;"><line y2="6" x2="0" style="shape-rendering: crispEdges; fill: none; stroke: rgb(204, 204, 204);"></line><text dy=".71em" y="9" x="0" style="text-anchor: middle;">Titanic</text></g><g class="tick" transform="translate(650,0)" style="opacity: 1;"><line y2="6" x2="0" style="shape-rendering: crispEdges; fill: none; stroke: rgb(204, 204, 204);"></line><text dy=".71em" y="9" x="0" style="text-anchor: middle;">Up</text></g><g class="tick" transform="translate(679,0)" style="opacity: 1;"><line y2="6" x2="0" style="shape-rendering: crispEdges; fill: none; stroke: rgb(204, 204, 204);"></line><text dy=".71em" y="9" x="0" style="text-anchor: middle;">X-Men: The Last Stand</text></g><g class="tick" transform="translate(708,0)" style="opacity: 1;"><line y2="6" x2="0" style="shape-rendering: crispEdges; fill: none; stroke: rgb(204, 204, 204);"></line><text dy=".71em" y="9" x="0" style="text-anchor: middle;">You've Got Mail</text></g><g class="tick" transform="translate(737,0)" style="opacity: 1;"><line y2="6" x2="0" style="shape-rendering: crispEdges; fill: none; stroke: rgb(204, 204, 204);"></line><text dy=".71em" y="9" x="0" style="text-anchor: middle;">Zookeeper</text></g><path class="domain" d="M0,6V0H750V6" style="shape-rendering: crispEdges; fill: none; stroke: rgb(204, 204, 204);"></path></g></svg>